:SAMPLES-PER-SECOND 30
:FRAME-RANGE 1-564
:FULLY-SPECIFIED
:DEGREES
353
root  11.8485 39.3849 -70.3849 166.294 -32.2721 -179.418
RightUpLeg  -3.49601 1.51003 -3.97008
RightLeg  11.1108 -8.34106 -3.45471
RightFoot  -4.85979 -0.376491 6.05792
RightToes  -1.74624e-010 0 -3.6325e-017
Spine  10.9317 3.56234 7.37136
Spine1  -1.39368 5.439 -7.41321
HEad  15.3203 -12.9852 -3.14642
LeftShoulder1  2.93183 -4.55991 -30.3394
LeftArm  1.19898 5.5818 -7.29436
LeftForeArm  -2.07574 -75.9173 -60.6616
LeftHand  -0.158686 3.18508 7.74775
RightShoulder  13.4627 18.044 54.5342
RightArm  1.77402 16.7866 -1.39514
RightForeArm  -29.757 52.493 16.6916
RightHand  3.78942 15.4894 20.2452
LeftUpLeg  24.6936 7.71518 2.68839
LeftLeg  -0.78266 -3.62491 0.743756
LeftFoot  -12.3868 0.127317 5.77997
LeftToes  -6.43926e-010 8.38805e-011 -3.16407e-011
354
root  11.6871 39.2674 -71.022 166.338 -30.1709 -179.191
RightUpLeg  -3.62795 -1.22058 -3.96081
RightLeg  5.34889 -7.42864 -3.56674
RightFoot  -3.19724 -0.471811 6.31398
RightToes  -1.74624e-010 0 -3.6325e-017
Spine  10.506 3.21006 6.89055
Spine1  -1.21507 4.97043 -6.92736
HEad  16.091 -12.867 -2.81525
LeftShoulder1  2.99709 -4.81266 -30.0162
LeftArm  1.74901 4.58346 -7.76613
LeftForeArm  -8.3511 -74.7879 -53.5031
LeftHand  -0.163102 2.49735 6.16661
RightShoulder  13.2963 17.5253 55.1621
RightArm  2.34486 16.5698 -1.35093
RightForeArm  -28.9209 52.0441 16.3837
RightHand  3.94595 15.9853 20.5842
LeftUpLeg  25.5801 7.88012 3.1151
LeftLeg  -0.388881 -1.74336 0.841984
LeftFoot  -13.3853 0.174624 5.27215
LeftToes  -6.43926e-010 8.38805e-011 -3.16407e-011
355
root  11.5501 39.1155 -71.7448 166.465 -27.9132 -179.111
RightUpLeg  -3.55184 -1.88843 -3.99671
RightLeg  -0.275912 -8.04167 -3.04286
RightFoot  -1.81327 -0.521027 6.09678
RightToes  -1.74624e-010 0 -3.6325e-017
Spine  10.3061 3.04257 6.17819
Spine1  -1.32171 4.61297 -6.10243
HEad  16.8321 -12.5206 -2.80212
LeftShoulder1  3.04054 -4.86987 -30.2932
LeftArm  2.14937 3.25591 -8.16836
LeftForeArm  -14.1956 -73.2386 -46.5121
LeftHand  -0.166665 1.55515 4.87357
RightShoulder  13.1957 17.1798 55.6354
RightArm  2.98214 16.3116 -1.43134
RightForeArm  -27.7829 51.5603 16.0461
RightHand  3.9936 16.7282 20.1201
LeftUpLeg  26.6161 8.17182 3.65348
LeftLeg  0.0748094 -0.0526529 0.694682
LeftFoot  -14.6388 0.215292 4.42037
LeftToes  -6.43926e-010 8.38805e-011 -3.16407e-011
356
root  11.4305 38.8924 -72.5738 166.772 -25.9578 -179.154
RightUpLeg  -3.54671 -1.6701 -3.95843
RightLeg  -5.11305 -9.25888 -2.3166
RightFoot  -1.40658 -0.481706 5.42686
RightToes  -1.74624e-010 0 -3.6325e-017
Spine  9.59518 2.75252 5.56656
Spine1  -0.918985 4.23755 -5.96241
HEad  17.315 -12.052 -2.64144
LeftShoulder1  3.06877 -4.97838 -30.1603
LeftArm  2.3124 1.75408 -8.84211
LeftForeArm  -18.9242 -71.5839 -41.041
LeftHand  -0.190576 1.26638 5.25065
RightShoulder  13.1995 17.0683 55.936
RightArm  3.38715 16.3302 -1.15622
RightForeArm  -27.3337 50.7013 15.5436
RightHand  3.9942 17.1122 19.7724
LeftUpLeg  27.2877 8.38192 4.02117
LeftLeg  1.30303 1.61827 0.778292
LeftFoot  -16.2639 0.243799 3.39804
LeftToes  -6.43926e-010 8.38805e-011 -3.16407e-011
357
root  11.3318 38.6663 -73.4714 167.171 -24.2828 -179.244
RightUpLeg  -4.18288 -1.24461 -3.79356
RightLeg  -7.37625 -9.24404 -2.19489
RightFoot  -1.97455 -0.490472 5.81667
RightToes  -1.74624e-010 0 -3.6325e-017
Spine  9.08045 2.46916 4.80545
Spine1  -0.816606 3.81754 -5.4923
HEad  17.812 -11.7241 -2.64427
LeftShoulder1  3.11075 -5.07021 -30.2644
LeftArm  2.43487 -0.0182589 -9.41516
LeftForeArm  -21.7925 -69.4525 -35.6033
LeftHand  -0.399143 0.400906 9.32147
RightShoulder  13.3213 17.1835 56.125
RightArm  3.72499 16.2489 -1.05299
RightForeArm  -26.8306 49.8526 15.064
RightHand  3.67025 17.3878 17.9331
LeftUpLeg  28.1813 8.47511 4.25566
LeftLeg  2.07505 3.0349 1.05116
LeftFoot  -17.7605 0.217793 1.9824
LeftToes  -6.43926e-010 8.38805e-011 -3.16407e-011
358
root  11.258 38.4515 -74.444 167.586 -22.825 -179.3
RightUpLeg  -4.3121 -0.905355 -3.45856
RightLeg  -8.75918 -7.88902 -2.309
RightFoot  -2.23087 -0.508582 6.18563
RightToes  -1.74624e-010 0 -3.6325e-017
Spine  8.61633 2.33536 4.18787
Spine1  -0.567675 3.56091 -4.99008
HEad  18.0466 -11.3894 -2.64634
LeftShoulder1  3.1703 -5.27595 -30.0911
LeftArm  2.76268 -2.18157 -10.3715
LeftForeArm  -27.7645 -67.1678 -31.4353
LeftHand  -0.166896 0.306513 3.8123
RightShoulder  13.3981 17.2315 56.3055
RightArm  3.93073 16.4334 -1.08722
RightForeArm  -26.2949 48.966 14.5821
RightHand  3.84835 17.9865 18.3157
LeftUpLeg  29.2558 8.68094 4.87309
LeftLeg  2.63114 3.79431 1.11836
LeftFoot  -18.8025 0.140039 0.417525
LeftToes  -6.43926e-010 8.38805e-011 -3.16407e-011
359
root  11.2292 38.2668 -75.4953 167.887 -21.5265 -179.286
RightUpLeg  -4.12051 -0.725779 -2.90627
RightLeg  -8.07345 -6.35349 -2.43257
RightFoot  -2.02096 -0.511802 6.10284
RightToes  -1.74624e-010 0 -3.6325e-017
Spine  8.45961 2.21296 3.73657
Spine1  -0.438632 3.31342 -4.50915
HEad  18.1112 -11.1804 -2.59026
LeftShoulder1  3.20532 -5.40159 -29.9738
LeftArm  3.13843 -4.58145 -11.2081
LeftForeArm  -31.9341 -64.3979 -27.4108
LeftHand  -0.137766 0.169937 3.07326
RightShoulder  13.5106 17.3885 56.3474
RightArm  4.07634 16.6586 -0.936979
RightForeArm  -25.5675 47.9324 14.0386
RightHand  3.77669 18.4926 17.5788
LeftUpLeg  30.4389 8.99774 5.84705
LeftLeg  3.3859 3.9692 1.19287
LeftFoot  -19.5216 -0.0166013 -1.86925
LeftToes  -6.43926e-010 8.38805e-011 -3.16407e-011
360
root  11.2422 38.1839 -76.6161 168.083 -20.4161 -178.858
RightUpLeg  -3.43493 -0.439925 -1.88118
RightLeg  -7.06007 -7.01401 -2.16868
RightFoot  0.342164 -0.764007 7.47945
RightToes  -1.74624e-010 0 -3.6325e-017
Spine  8.38251 2.07471 3.93928
Spine1  -0.221396 3.13044 -3.9353
HEad  18.2416 -11.1575 -2.5696
LeftShoulder1  3.2691 -5.64102 -29.726
LeftArm  3.67136 -6.85826 -11.8718
LeftForeArm  -35.0405 -61.7959 -24.4164
LeftHand  -0.0872037 -0.390523 1.80809
RightShoulder  13.6417 17.5271 56.5072
RightArm  4.34373 16.8029 -0.848578
RightForeArm  -24.8032 47.0564 13.5888
RightHand  3.66538 18.9192 16.7445
LeftUpLeg  31.8008 9.18316 7.3542
LeftLeg  3.66672 3.87773 1.34121
LeftFoot  -19.4014 -0.230425 -4.91871
LeftToes  -6.43926e-010 8.38805e-011 -3.16407e-011
361
root  11.3001 38.2003 -77.7748 168.103 -19.1532 -177.813
RightUpLeg  -2.66744 0.397792 -0.029692
RightLeg  -7.41875 -7.75447 -1.96852
RightFoot  6.44989 -1.22679 8.10881
RightToes  -1.74624e-010 0 -3.6325e-017
Spine  8.56621 1.83765 5.10254
Spine1  -0.00307756 3.077 -3.55972
HEad  18.4558 -10.8878 -2.40661
LeftShoulder1  3.26874 -5.68343 -29.5541
LeftArm  3.99871 -8.76432 -12.4895
LeftForeArm  -37.3174 -59.2626 -22.0048
LeftHand  -0.0681664 -0.672928 1.38491
RightShoulder  13.8655 17.7271 56.8663
RightArm  4.86783 17.0894 -0.540268
RightForeArm  -23.8035 45.8789 13.0103
RightHand  3.49553 19.3974 15.6364
LeftUpLeg  32.7138 9.16783 9.40597
LeftLeg  4.69165 3.78701 1.80154
LeftFoot  -18.4769 -0.459967 -9.13518
LeftToes  -6.43926e-010 8.38805e-011 -3.16407e-011
362
root  11.4576 38.1958 -79.0042 167.849 -17.3312 -176.333
RightUpLeg  -3.08473 1.5049 2.60246
RightLeg  -4.39822 -7.49083 -1.78293
RightFoot  7.50896 -1.16609 7.32659
RightToes  -1.74624e-010 0 -3.6325e-017
Spine  9.36912 1.83026 6.21843
Spine1  -0.278666 3.2509 -3.12284
HEad  18.4412 -10.4905 -2.04771
LeftShoulder1  3.26965 -5.64492 -29.7166
LeftArm  4.25002 -10.3505 -12.8042
LeftForeArm  -39.9493 -56.8803 -20.1134
LeftHand  -0.024072 -0.582888 0.533285
RightShoulder  14.4283 18.2585 57.6646
RightArm  5.49817 17.377 -0.538642
RightForeArm  -23.2134 44.1671 12.259
RightHand  3.37354 20.0138 14.6978
LeftUpLeg  32.0715 8.72128 12.1067
LeftLeg  9.39327 4.00031 2.13085
LeftFoot  -17.3757 -0.649298 -14.2249
LeftToes  -6.43926e-010 8.38805e-011 -3.16407e-011
363
root  11.6528 38.2133 -80.1715 167.83 -15.4942 -175.335
RightUpLeg  -3.79659 2.72689 4.87629
RightLeg  -0.474224 -7.35708 -2.07832
RightFoot  6.68903 -1.17334 7.67461
RightToes  -1.74624e-010 0 -3.6325e-017
Spine  10.4203 1.8546 6.97335
Spine1  -0.55808 3.5676 -3.16011
HEad  18.3508 -9.96903 -1.06045
LeftShoulder1  3.31194 -5.87463 -29.2851
LeftArm  4.07922 -11.6361 -13.4187
LeftForeArm  -41.2924 -54.331 -18.3273
LeftHand  0.00988512 -1.15672 -0.0642458
RightShoulder  15.0872 18.9165 58.4559
RightArm  5.99018 17.9987 -0.0744352
RightForeArm  -22.1999 41.7295 11.2621
RightHand  3.31699 20.8282 13.975
LeftUpLeg  29.0999 6.14059 12.841
LeftLeg  17.6853 7.17105 2.88147
LeftFoot  -14.3413 -0.410902 -18.8038
LeftToes  -6.43926e-010 8.38805e-011 -3.16407e-011
364
root  11.8413 38.1896 -81.2466 168.122 -14.6767 -174.694
RightUpLeg  -4.10202 3.02824 6.32877
RightLeg  1.80059 -7.77592 -1.86519
RightFoot  7.17822 -1.04234 6.68883
RightToes  -1.74624e-010 0 -3.6325e-017
Spine  11.4369 1.57654 7.55236
Spine1  -0.905143 3.63316 -3.57629
HEad  18.3839 -9.64555 -0.140634
LeftShoulder1  3.35101 -6.10815 -28.8247
LeftArm  4.61888 -13.9929 -13.6853
LeftForeArm  -42.8841 -51.4775 -16.6127
LeftHand  0.03964 -1.88412 -0.471272
RightShoulder  15.7381 19.7272 58.8109
RightArm  6.49974 18.5589 0.179193
RightForeArm  -22.1456 39.5917 10.4965
RightHand  3.35564 21.4404 13.8025
LeftUpLeg  23.2467 5.90513 14.3855
LeftLeg  29.5844 6.71779 4.4512
LeftFoot  -8.21331 0.525114 -17.3254
LeftToes  -6.43926e-010 8.38805e-011 -3.16407e-011
